<svg width="40" height="40" viewBox="0 0 40 40" fill="none" xmlns="http://www.w3.org/2000/svg">
<rect width="40" height="40" rx="4" fill="#0176D3"/>
<path d="M19.28 25.56H31.24C31.68 25.56 32.04 25.92 32.04 26.36V27.96C32.04 28.4 31.68 28.76 31.24 28.76H19.28C18.84 28.76 18.48 28.4 18.48 27.96V26.36C18.48 25.92 18.84 25.56 19.28 25.56Z" fill="white"/>
<path d="M19.28 18.4H31.24C31.68 18.4 32.04 18.76 32.04 19.2V20.8C32.04 21.24 31.68 21.6 31.24 21.6H19.28C18.84 21.6 18.48 21.24 18.48 20.8V19.2C18.48 18.76 18.84 18.4 19.28 18.4Z" fill="white"/>
<path d="M19.28 11.28H31.24C31.68 11.28 32.04 11.64 32.04 12.08V13.68C32.04 14.12 31.68 14.48 31.24 14.48H19.28C18.84 14.48 18.48 14.12 18.48 13.68V12.08C18.48 11.64 18.84 11.28 19.28 11.28Z" fill="white"/>
<path d="M11.6 11.28C10.72 11.28 10 12 10 12.88C10 13.76 10.72 14.48 11.6 14.48C12.48 14.48 13.2 13.76 13.2 12.88C13.2 12 12.48 11.28 11.6 11.28Z" fill="white"/>
<path d="M11.6 25.56C10.72 25.56 10 26.28 10 27.16C10 28.04 10.72 28.76 11.6 28.76C12.48 28.76 13.2 28.04 13.2 27.16C13.2 26.28 12.48 25.56 11.6 25.56Z" fill="white"/>
<path d="M11.6 16.4C9.6 16.4 8 18 8 20C8 22 9.6 23.6 11.6 23.6C13.6 23.6 15.2 22 15.2 20C15.2 18 13.6 16.4 11.6 16.4ZM11.6 21.2C10.92 21.2 10.4 20.64 10.4 20C10.4 19.32 10.96 18.8 11.6 18.8C12.24 18.8 12.8 19.36 12.8 20C12.8 20.68 12.28 21.2 11.6 21.2Z" fill="white"/>
</svg>
